# xmcd
#
# Track frame offsets:
#	150
#	17034
#	37372
#	54415
#	74578
#	94614
#	110818
#	129236
#	149222
#	166937
#	190124
#
# Disc length: 3164 seconds
#
# Revision: 0
# Processed by: cddbd v1.5.2PL0 Copyright (c) Steve Scherf et al.
# Submitted via: EasyCDDAExtractor 15.3.0.1
#
DISCID=a40c5a0b
DTITLE=Pinhani - Canlı Yayın
DYEAR=2013
DGENRE=Acapella
TTITLE0=Bir Varmış Bir Yokmuş
TTITLE1=Gönül Dağı
TTITLE2=Şairin Elinde
TTITLE3=Beni Al
TTITLE4=Bir Damla Gözlerimde
TTITLE5=Sevduğum Yanımda Uyusun
TTITLE6=Hele Bi Gel
TTITLE7=Ya Sen Olmasaydın
TTITLE8=Uçtu Uçtu
TTITLE9=Ağlama
TTITLE10=Bir Elmanın Yarısı
EXTD=
EXTT0=
EXTT1=
EXTT2=
EXTT3=
EXTT4=
EXTT5=
EXTT6=
EXTT7=
EXTT8=
EXTT9=
EXTT10=
PLAYORDER=
